<?xml version="1.0" encoding="utf-8"?>
<!-- Generator: Adobe Illustrator 23.0.2, SVG Export Plug-In . SVG Version: 6.00 Build 0)  -->
<svg version="1.1" id="Laag_1" xmlns="http://www.w3.org/2000/svg" xmlns:xlink="http://www.w3.org/1999/xlink" x="0px" y="0px"
	 viewBox="0 0 252 66" style="enable-background:new 0 0 252 66;" xml:space="preserve">
<style type="text/css">
	.st0{filter:url(#Adobe_OpacityMaskFilter);}
	.st1{fill-rule:evenodd;clip-rule:evenodd;fill:#FFFFFF;}
	.st2{mask:url(#mask-2_1_);fill-rule:evenodd;clip-rule:evenodd;fill:#005836;}
</style>
<title>ifla-logo</title>
<desc>Created with Sketch.</desc>
<g id="Symbols">
	<g transform="translate(-151.000000, -47.000000)">
		<g id="ifla-logo" transform="translate(151.000000, 47.000000)">
			<g id="Clip-2">
			</g>
			<defs>
				<filter id="Adobe_OpacityMaskFilter" filterUnits="userSpaceOnUse" x="0" y="0" width="251.2" height="65.7">
					<feColorMatrix  type="matrix" values="1 0 0 0 0  0 1 0 0 0  0 0 1 0 0  0 0 0 1 0"/>
				</filter>
			</defs>
			<mask maskUnits="userSpaceOnUse" x="0" y="0" width="251.2" height="65.7" id="mask-2_1_">
				<g class="st0">
					<polygon id="path-1_1_" class="st1" points="0,0 251.2,0 251.2,65.7 0,65.7 					"/>
				</g>
			</mask>
			<path id="Fill-1" class="st2" d="M88.9,55c0-0.4,0.2-0.6,0.7-0.6c0.4,0,0.8,0.2,0.8,0.6h1.7c-0.1-1.4-1.2-1.9-2.5-1.9
				c-1.1,0-2.7,0.6-2.7,1.9c0,1.5,1.1,1.7,2.3,2c0.4,0.1,1.3,0.3,1.3,0.8c0,0.5-0.4,0.7-0.9,0.7c-0.5,0-1-0.3-1-0.8h-1.7
				c0,1.4,1.3,2,2.8,2c1.2,0,2.8-0.7,2.8-2.1C92.5,55.4,88.9,56,88.9,55L88.9,55z M100.3,38.3c-0.9,0-1.7,0.2-2.1,1.2h0l0-1.1h-1.7
				c0,0.5,0.1,1,0.1,1.2l0,5h1.9v-3.1c0-0.4,0.1-0.8,0.2-1.1c0.2-0.3,0.6-0.4,0.9-0.5h0.8V38.3z M95.3,55c0-0.4,0.2-0.6,0.7-0.6
				c0.4,0,0.8,0.2,0.8,0.6h1.7c-0.1-1.4-1.2-1.9-2.5-1.9c-1.1,0-2.7,0.6-2.7,1.9c0,1.5,1.1,1.7,2.3,2c0.4,0.1,1.3,0.3,1.3,0.8
				c0,0.5-0.4,0.7-0.9,0.7c-0.5,0-1-0.3-1-0.8h-1.7c0,1.4,1.3,2,2.8,2c1.2,0,2.8-0.7,2.8-2.1C98.9,55.4,95.3,56,95.3,55L95.3,55z
				 M183.7,59.6h1.9v-9h-1.9V59.6z M103.8,43.6c-0.5,0-0.9-0.4-0.9-0.9c0-1,1.3-1,2-1C104.8,42.4,104.8,43.6,103.8,43.6L103.8,43.6z
				 M106.7,40.5c0-1.9-1.4-2.3-2.7-2.3c-0.7,0-1.3,0.1-1.8,0.4c-0.5,0.3-0.8,0.8-0.8,1.6h1.8c0-0.3,0.2-0.9,0.8-0.9
				c0.7,0,0.9,0.5,0.9,0.8v0.6c-0.7,0-1.7,0-2.4,0.3c-1.1,0.5-1.3,1.5-1.3,2c0,1.2,0.9,1.9,2,1.9c0.8,0,1.5-0.3,1.9-1h0
				c0,0.3,0,0.5,0.1,0.8h1.7c0-0.2-0.1-0.4-0.1-0.7V40.5z M175.6,58.6c-1.2,0-1.3-1.1-1.3-2.1c0-1,0.1-2.1,1.3-2.1
				c1,0,1.3,1.2,1.3,2.1C177,57.4,176.6,58.6,175.6,58.6L175.6,58.6z M178.8,50.6H177v3.5h0c-0.3-0.5-1-0.9-1.7-0.9
				c-1.9,0-2.9,1.6-2.9,3.3c0,1.6,0.9,3.3,2.7,3.3c0.8,0,1.5-0.3,1.9-1.1h0c0,0.3,0,0.6,0,0.9h1.9c0-0.4-0.1-0.8-0.1-1.2V50.6z
				 M108.9,26.6c0-0.4,0-0.8,0.2-1.1c0.2-0.3,0.6-0.4,0.9-0.5h0.8v-1.7c-0.9,0-1.7,0.2-2.1,1.2h0l0-1.1h-1.7c0,0.5,0.1,1,0.1,1.2
				l0,5h1.9V26.6z M103.1,58.6c-1.1,0-1.3-1.1-1.3-2.1c0-1,0.2-2.1,1.3-2.1c1.1,0,1.3,1.1,1.3,2.1C104.4,57.5,104.2,58.6,103.1,58.6
				L103.1,58.6z M103.1,53.2c-2,0-3.3,1.3-3.3,3.3c0,2,1.2,3.3,3.3,3.3c2,0,3.3-1.3,3.3-3.3C106.3,54.5,105.1,53.2,103.1,53.2
				L103.1,53.2z M78.2,14.7h1.9v-9h-1.9V14.7z M78.3,44.7h5.8v-1.5h-3.9v-7.5h-1.9V44.7z M206.2,52.2h2v-1.6h-2V52.2z M80.7,56.2
				l1.3-3.8h0l1.2,3.8H80.7z M80.9,50.6l-3.3,9h1.8l0.7-1.9h3.6l0.6,1.9h1.9l-3.1-9H80.9z M191.1,53.2c-0.9,0-1.5,0.4-1.9,0.9l0,0
				v-0.7h-1.9v6.3h1.9v-3.8c0-0.9,0.5-1.4,1.1-1.4c0.9,0,1.1,0.8,1.1,1.4v3.8h1.9v-4.1c0-0.2,0-0.6-0.1-1
				C192.9,53.6,191.7,53.2,191.1,53.2L191.1,53.2z M196.5,55c0-0.4,0.2-0.6,0.7-0.6c0.4,0,0.8,0.2,0.8,0.6h1.7
				c-0.1-1.4-1.2-1.9-2.5-1.9c-1.1,0-2.7,0.6-2.7,1.9c0,1.5,1.1,1.7,2.3,2c0.4,0.1,1.3,0.3,1.3,0.8c0,0.5-0.4,0.7-0.9,0.7
				c-0.5,0-1-0.3-1-0.8h-1.7c0,1.4,1.3,2,2.8,2c1.2,0,2.8-0.7,2.8-2.1C200.1,55.4,196.5,56,196.5,55L196.5,55z M203.7,51.5l-1.9,0.7
				v1.2h-1.3v1.2h1.3v3.1c0,1.4,0.3,2.1,1.8,2.1c0.3,0,1.3-0.1,1.5-0.2v-1.1c-0.2,0-0.4,0-0.6,0c-0.6,0-0.8-0.2-0.8-1v-2.9h1.4v-1.2
				h-1.4V51.5z M206.2,59.6h1.9v-6.3h-1.9V59.6z M153.8,23.4h-0.9v1.2h0.9v5h1.9v-5h1.1v-1.2h-1.1c0-1.2,0-1.8,1.3-1.7v-1.2
				c-0.3,0-0.7-0.1-1-0.1C153.9,20.5,153.7,21.6,153.8,23.4L153.8,23.4z M130.3,28.6c-1.1,0-1.3-1.1-1.3-2.1c0-1,0.2-2.1,1.3-2.1
				c1.1,0,1.3,1.1,1.3,2.1C131.6,27.5,131.4,28.6,130.3,28.6L130.3,28.6z M130.3,23.2c-2,0-3.3,1.3-3.3,3.3s1.2,3.3,3.3,3.3
				c2,0,3.3-1.3,3.3-3.3S132.3,23.2,130.3,23.2L130.3,23.2z M168.8,53.2c-0.9,0-1.5,0.4-1.9,0.9l0,0v-0.7H165v6.3h1.9v-3.8
				c0-0.9,0.5-1.4,1.1-1.4c0.9,0,1.1,0.8,1.1,1.4v3.8h1.9v-4.1c0-0.2,0-0.6-0.1-1C170.6,53.6,169.4,53.2,168.8,53.2L168.8,53.2z
				 M110.1,54.4c0.7,0,0.9,0.6,0.9,1.1h1.8c0-1.5-1.2-2.4-2.8-2.4c-1.9,0-2.8,1.7-2.8,3.3c0,1.7,0.9,3.3,2.8,3.3
				c1.7,0,2.7-0.9,2.8-2.5h-1.8c0,0.5-0.2,1.2-0.9,1.2c-0.8,0-0.8-1.6-0.9-2.2C109.3,55.9,109.3,54.4,110.1,54.4L110.1,54.4z
				 M149.9,55c0-0.4,0.2-0.6,0.7-0.6c0.4,0,0.8,0.2,0.8,0.6h1.7c-0.1-1.4-1.2-1.9-2.5-1.9c-1.1,0-2.7,0.6-2.7,1.9
				c0,1.5,1.1,1.7,2.3,2c0.4,0.1,1.3,0.3,1.3,0.8c0,0.5-0.4,0.7-0.9,0.7c-0.5,0-1-0.3-1-0.8h-1.7c0,1.4,1.3,2,2.8,2
				c1.2,0,2.8-0.7,2.8-2.1C153.5,55.4,149.9,56,149.9,55L149.9,55z M129.4,52.2h2v-1.6h-2V52.2z M84.1,22.1v-1.5h-5.8v9h1.9v-3.8
				h3.6v-1.5h-3.6v-2.2H84.1z M136,58.6c-1.1,0-1.3-1.1-1.3-2.1c0-1,0.2-2.1,1.3-2.1c1.1,0,1.3,1.1,1.3,2.1
				C137.3,57.5,137.1,58.6,136,58.6L136,58.6z M136,53.2c-2,0-3.3,1.3-3.3,3.3c0,2,1.2,3.3,3.3,3.3c2,0,3.3-1.3,3.3-3.3
				C139.3,54.5,138,53.2,136,53.2L136,53.2z M160.4,58.6c-0.5,0-0.9-0.4-0.9-0.9c0-1,1.3-1,2-1C161.5,57.4,161.5,58.6,160.4,58.6
				L160.4,58.6z M163.4,55.5c0-1.9-1.4-2.3-2.7-2.3c-0.7,0-1.3,0.1-1.8,0.4c-0.5,0.3-0.8,0.8-0.8,1.6h1.8c0-0.3,0.2-0.9,0.8-0.9
				c0.7,0,0.9,0.5,0.9,0.8v0.6c-0.7,0-1.7,0-2.4,0.3c-1.1,0.5-1.3,1.6-1.3,2c0,1.2,0.9,1.9,2,1.9c0.8,0,1.5-0.3,1.9-1h0
				c0,0.3,0,0.6,0.1,0.8h1.7c0-0.2-0.1-0.4-0.1-0.7V55.5z M129.5,59.6h1.9v-6.3h-1.9V59.6z M114.1,59.6h1.9v-6.3h-1.9V59.6z
				 M117.7,38.4l-1.4,4.3h0l-1.4-4.3h-2l2.4,6.3l-0.8,2.4h1.9l3.1-8.7H117.7z M114.1,52.2h2v-1.6h-2V52.2z M127,51.5l-1.9,0.7v1.2
				h-1.3v1.2h1.3v3.1c0,1.4,0.3,2.1,1.8,2.1c0.3,0,1.3-0.1,1.5-0.2v-1.1c-0.2,0-0.4,0-0.6,0c-0.6,0-0.8-0.2-0.8-1v-2.9h1.4v-1.2H127
				V51.5z M123.7,22.3h2v-1.6h-2V22.3z M123.8,29.7h1.9v-6.3h-1.9V29.7z M120.1,58.6c-0.5,0-0.9-0.4-0.9-0.9c0-1,1.3-1,2-1
				C121.1,57.4,121.1,58.6,120.1,58.6L120.1,58.6z M123,55.5c0-1.9-1.4-2.3-2.7-2.3c-0.7,0-1.3,0.1-1.8,0.4
				c-0.5,0.3-0.8,0.8-0.8,1.6h1.8c0-0.3,0.2-0.9,0.8-0.9c0.7,0,0.9,0.5,0.9,0.8v0.6c-0.7,0-1.7,0-2.4,0.3c-1.1,0.5-1.3,1.6-1.3,2
				c0,1.2,0.9,1.9,2,1.9c0.8,0,1.5-0.3,1.9-1h0c0,0.3,0,0.6,0.1,0.8h1.7c0-0.2-0.1-0.4-0.1-0.7V55.5z M144.4,53.2
				c-0.9,0-1.5,0.4-1.9,0.9l0,0v-0.7h-1.9v6.3h1.9v-3.8c0-0.9,0.5-1.4,1.1-1.4c0.9,0,1.1,0.8,1.1,1.4v3.8h1.9v-4.1
				c0-0.2,0-0.6-0.1-1C146.3,53.6,145.1,53.2,144.4,53.2L144.4,53.2z M224.7,51.5l-1.9,0.7v1.2h-1.3v1.2h1.3v3.1
				c0,1.4,0.3,2.1,1.8,2.1c0.3,0,1.3-0.1,1.5-0.2v-1.1c-0.2,0-0.4,0-0.6,0c-0.6,0-0.8-0.2-0.8-1v-2.9h1.4v-1.2h-1.4V51.5z M110,39.5
				L110,39.5l-0.1-1.1h-1.7c0,0.5,0.1,1,0.1,1.2l0,5h1.9v-3.1c0-0.4,0.1-0.8,0.2-1.1c0.2-0.3,0.6-0.4,0.9-0.5h0.8v-1.7
				C111.2,38.3,110.4,38.5,110,39.5L110,39.5z M108.1,10.9c0-0.9,0.5-1.4,1.1-1.4c0.9,0,1.1,0.8,1.1,1.4v3.8h1.9v-4.1
				c0-0.2,0-0.6-0.1-1c-0.2-0.9-1.4-1.4-2.1-1.4c-0.9,0-1.5,0.4-1.9,0.9l0,0V8.4h-1.9v6.3h1.9V10.9z M116.2,13.6
				c-0.5,0-0.9-0.4-0.9-0.9c0-1,1.3-1,2-1C117.3,12.5,117.3,13.6,116.2,13.6L116.2,13.6z M114.9,11c-1.1,0.5-1.3,1.5-1.3,2
				c0,1.2,0.9,1.9,2,1.9c0.8,0,1.5-0.3,1.9-1h0c0,0.3,0,0.5,0.1,0.8h1.7c0-0.2-0.1-0.4-0.1-0.7v-3.4c0-1.9-1.4-2.3-2.7-2.3
				c-0.7,0-1.3,0.1-1.8,0.4c-0.5,0.3-0.8,0.8-0.8,1.6h1.8c0-0.3,0.2-0.9,0.8-0.9c0.7,0,0.9,0.5,0.9,0.8v0.6
				C116.6,10.6,115.6,10.7,114.9,11L114.9,11z M233.7,58.6c-1.1,0-1.3-1.1-1.3-2.1c0-1,0.2-2.1,1.3-2.1c1.1,0,1.3,1.1,1.3,2.1
				C235,57.5,234.8,58.6,233.7,58.6L233.7,58.6z M233.7,53.2c-2,0-3.3,1.3-3.3,3.3c0,2,1.2,3.3,3.3,3.3c2,0,3.3-1.3,3.3-3.3
				C237,54.5,235.7,53.2,233.7,53.2L233.7,53.2z M102.7,24.5c0.9,0,1.1,0.6,1.1,1.3h-2.2C101.7,25.1,101.9,24.5,102.7,24.5
				L102.7,24.5z M102.7,29.9c1.5,0,2.7-0.5,2.8-2.1h-1.7c-0.2,0.6-0.5,0.8-1.1,0.8c-1,0-1.1-0.8-1.1-1.6h4.1c0-0.4,0-0.8-0.1-1.2
				c0-0.4-0.1-0.8-0.3-1.1c-0.5-1.1-1.5-1.5-2.7-1.5c-1.9,0-3,1.4-3,3.3C99.7,28.6,100.6,29.9,102.7,29.9L102.7,29.9z M101.3,14.7
				h1.9v-3.1c0-0.4,0.1-0.8,0.2-1.1c0.2-0.3,0.6-0.4,0.9-0.5h0.8V8.3c-0.9,0-1.7,0.2-2.1,1.2h0l0-1.1h-1.7c0,0.5,0.1,1,0.1,1.2
				L101.3,14.7z M227.2,59.6h1.9v-6.3h-1.9V59.6z M97,9.5c0.9,0,1.1,0.6,1.1,1.3h-2.2C96,10.1,96.1,9.5,97,9.5L97,9.5z M97,14.9
				c1.5,0,2.7-0.5,2.8-2.1h-1.7c-0.2,0.6-0.5,0.8-1.1,0.8c-1,0-1.1-0.8-1.1-1.6h4.1c0-0.4,0-0.8,0-1.2c0-0.4-0.1-0.8-0.3-1.1
				c-0.5-1.1-1.5-1.5-2.7-1.5c-1.9,0-3,1.4-3,3.3C94,13.7,94.9,14.9,97,14.9L97,14.9z M118.1,24.6h1.3v3.1c0,1.4,0.3,2.1,1.8,2.1
				c0.3,0,1.3-0.1,1.5-0.2v-1.1c-0.2,0-0.4,0-0.6,0c-0.6,0-0.8-0.2-0.8-1v-2.9h1.4v-1.2h-1.4v-1.9l-1.9,0.7v1.2h-1.3V24.6z
				 M227.1,52.2h2v-1.6h-2V52.2z M114.3,28.6c-0.5,0-0.9-0.4-0.9-0.9c0-1,1.3-1,2-1C115.4,27.5,115.4,28.6,114.3,28.6L114.3,28.6z
				 M113.7,25.2c0-0.3,0.2-0.9,0.8-0.9c0.7,0,0.9,0.5,0.9,0.8v0.6c-0.7,0-1.7,0-2.4,0.3c-1.1,0.5-1.3,1.5-1.3,2c0,1.2,0.9,1.9,2,1.9
				c0.8,0,1.5-0.3,1.9-1h0c0,0.3,0,0.6,0.1,0.8h1.7c0-0.2-0.1-0.4-0.1-0.7v-3.4c0-1.9-1.4-2.3-2.7-2.3c-0.7,0-1.3,0.1-1.8,0.4
				c-0.5,0.3-0.8,0.8-0.8,1.6H113.7z M121.3,12.7c0,1.4,0.3,2.1,1.8,2.1c0.3,0,1.3-0.1,1.5-0.2v-1.1c-0.2,0-0.4,0-0.6,0
				c-0.6,0-0.8-0.2-0.8-1V9.7h1.4V8.4h-1.4V6.5l-1.9,0.7v1.2H120v1.2h1.3V12.7z M247.6,55c0-0.4,0.2-0.6,0.7-0.6
				c0.4,0,0.8,0.2,0.8,0.6h1.7c-0.1-1.4-1.2-1.9-2.5-1.9c-1.1,0-2.7,0.6-2.7,1.9c0,1.5,1.1,1.7,2.3,2c0.4,0.1,1.3,0.3,1.3,0.8
				c0,0.5-0.4,0.7-0.9,0.7c-0.5,0-1-0.3-1-0.8h-1.7c0,1.4,1.3,2,2.8,2c1.2,0,2.8-0.7,2.8-2.1C251.2,55.4,247.6,56,247.6,55L247.6,55
				z M146.8,13.6c-0.5,0-0.9-0.4-0.9-0.9c0-1,1.3-1,2-1C147.9,12.5,147.9,13.6,146.8,13.6L146.8,13.6z M145.5,11
				c-1.1,0.5-1.3,1.5-1.3,2c0,1.2,0.9,1.9,2,1.9c0.8,0,1.5-0.3,1.9-1h0c0,0.3,0,0.5,0.1,0.8h1.7c0-0.2-0.1-0.4-0.1-0.7v-3.4
				c0-1.9-1.4-2.3-2.7-2.3c-0.7,0-1.3,0.1-1.8,0.4c-0.5,0.3-0.8,0.8-0.8,1.6h1.8c0-0.3,0.2-0.9,0.8-0.9c0.7,0,0.9,0.5,0.9,0.8v0.6
				C147.2,10.6,146.2,10.7,145.5,11L145.5,11z M150.3,26.5c0,1-0.2,2.1-1.3,2.1c-1.1,0-1.3-1.1-1.3-2.1c0-1,0.2-2.1,1.3-2.1
				C150.1,24.5,150.3,25.5,150.3,26.5L150.3,26.5z M145.7,26.5c0,2,1.2,3.3,3.3,3.3c2,0,3.3-1.3,3.3-3.3s-1.2-3.3-3.3-3.3
				C146.9,23.2,145.7,24.6,145.7,26.5L145.7,26.5z M151.4,14.7h1.9v-9h-1.9V14.7z M138.7,10.9c0-0.9,0.5-1.4,1.1-1.4
				c0.9,0,1.1,0.8,1.1,1.4v3.8h1.9v-4.1c0-0.2,0-0.6-0.1-1c-0.2-0.9-1.4-1.4-2.1-1.4c-0.9,0-1.5,0.4-1.9,0.9l0,0V8.4h-1.9v6.3h1.9
				V10.9z M125.6,7.3h2V5.7h-2V7.3z M125.7,14.7h1.9V8.4h-1.9V14.7z M134.9,23.4v6.3h1.9v-3.8c0-0.9,0.5-1.4,1.1-1.4
				c0.9,0,1.1,0.8,1.1,1.4v3.8h1.9v-4.1c0-0.2,0-0.6-0.1-1c-0.2-0.9-1.4-1.4-2.1-1.4c-0.9,0-1.5,0.4-1.9,0.9l0,0v-0.7H134.9z
				 M132.2,9.5c1.1,0,1.3,1.1,1.3,2.1s-0.2,2.1-1.3,2.1c-1.1,0-1.3-1.1-1.3-2.1S131,9.5,132.2,9.5L132.2,9.5z M132.2,14.9
				c2,0,3.3-1.3,3.3-3.3s-1.2-3.3-3.3-3.3c-2,0-3.3,1.3-3.3,3.3S130.1,14.9,132.2,14.9L132.2,14.9z M242.1,53.2
				c-0.9,0-1.5,0.4-1.9,0.9l0,0v-0.7h-1.9v6.3h1.9v-3.8c0-0.9,0.5-1.4,1.1-1.4c0.9,0,1.1,0.8,1.1,1.4v3.8h1.9v-4.1
				c0-0.2,0-0.6-0.1-1C244,53.6,242.8,53.2,242.1,53.2L242.1,53.2z M220.6,53.4h-1.9v3.8c0,0.9-0.5,1.4-1.1,1.4
				c-0.9,0-1.1-0.8-1.1-1.4v-3.8h-1.9v4.1c0,0.2,0,0.6,0.1,1c0.2,0.9,1.4,1.4,2.1,1.4c0.9,0,1.5-0.4,1.9-1l0.1,0.8h1.9
				c0-0.4-0.1-0.8-0.1-1.1V53.4z M212.2,51.5l-1.9,0.7v1.2H209v1.2h1.3v3.1c0,1.4,0.3,2.1,1.8,2.1c0.3,0,1.3-0.1,1.5-0.2v-1.1
				c-0.2,0-0.4,0-0.6,0c-0.6,0-0.8-0.2-0.8-1v-2.9h1.4v-1.2h-1.4V51.5z M95.2,28.6c-1.2,0-1.3-1.1-1.3-2.1s0.1-2.1,1.3-2.1
				c1,0,1.3,1.2,1.3,2.1S96.2,28.6,95.2,28.6L95.2,28.6z M96.5,28.8L96.5,28.8c0,0.3,0,0.6,0.1,0.9h1.9c0-0.4-0.1-0.8-0.1-1.2v-7.8
				h-1.9v3.5h0c-0.3-0.5-1-0.9-1.7-0.9c-1.9,0-2.9,1.6-2.9,3.3c0,1.6,0.9,3.3,2.7,3.3C95.4,29.9,96.1,29.5,96.5,28.8L96.5,28.8z
				 M83.7,10.9c0-0.9,0.5-1.4,1.1-1.4c0.9,0,1.1,0.8,1.1,1.4v3.8h1.9v-4.1c0-0.2,0-0.6-0.1-1c-0.2-0.9-1.4-1.4-2.1-1.4
				c-0.9,0-1.5,0.4-1.9,0.9l0,0V8.4h-1.9v6.3h1.9V10.9z M91.9,39.4c1.2,0,1.3,1.1,1.3,2.1c0,1-0.1,2.1-1.3,2.1c-1,0-1.3-1.2-1.3-2.1
				C90.5,40.7,90.8,39.4,91.9,39.4L91.9,39.4z M88.6,35.6v7.8c0,0.4,0,0.8-0.1,1.2h1.9c0-0.3,0-0.6,0-0.9h0c0.4,0.7,1.1,1.1,1.9,1.1
				c1.8,0,2.7-1.7,2.7-3.3c0-1.7-1-3.3-2.9-3.3c-0.6,0-1.3,0.4-1.7,0.9h0v-3.5H88.6z M85.1,37.2h2v-1.6h-2V37.2z M85.2,44.7h1.9
				v-6.3h-1.9V44.7z M90,12.7c0,1.4,0.3,2.1,1.8,2.1c0.3,0,1.3-0.1,1.5-0.2v-1.1c-0.2,0-0.4,0-0.6,0c-0.6,0-0.8-0.2-0.8-1V9.7h1.4
				V8.4h-1.4V6.5L90,7.2v1.2h-1.3v1.2H90V12.7z M87.9,24.5c0.9,0,1.1,0.6,1.1,1.3h-2.2C86.9,25.1,87,24.5,87.9,24.5L87.9,24.5z
				 M84.9,26.5c0,2.1,0.9,3.3,3,3.3c1.5,0,2.7-0.5,2.8-2.1h-1.7c-0.2,0.6-0.5,0.8-1.1,0.8c-1,0-1.1-0.8-1.1-1.6h4.1
				c0-0.4,0-0.8-0.1-1.2c0-0.4-0.1-0.8-0.3-1.1c-0.5-1.1-1.5-1.5-2.7-1.5C86,23.2,84.9,24.7,84.9,26.5L84.9,26.5z M50.5,31.6h11.4
				V17.7H50.5V31.6z M42.5,20.3h2.3l3.2,8.6H46L45.4,27h-3.6l-0.6,1.8h-1.9L42.5,20.3z M37.9,31.6h11.4V17.7H37.9V31.6z M43.6,21.6
				l-1.4,4.1H45L43.6,21.6z M28.4,20.3h1.8v7.3h3.6v1.3h-5.4V20.3z M25.2,31.6h11.4V17.7H25.2V31.6z M15.7,20.3h5.5v1.3h-3.8v2.2H21
				v1.3h-3.6v3.7h-1.8V20.3z M12.6,31.6H24V17.7H12.6V31.6z M4.8,28.9h1.8v-8.6H4.8V28.9z M0,31.6h11.4V17.7H0V31.6z M0,16.4h11.4V0
				H0V16.4z M0,65.7h11.4V32.9H0V65.7z M12.6,16.4H24V0H12.6V16.4z M12.6,65.7H24V32.9H12.6V65.7z M25.2,16.4h11.4V0H25.2V16.4z
				 M25.2,65.7h11.4V32.9H25.2V65.7z M37.9,16.4h11.4V0H37.9V16.4z M37.9,65.7h11.4V32.9H37.9V65.7z M50.5,16.4h11.4V0H50.5V16.4z
				 M50.5,65.7h11.4V32.9H50.5V65.7z"/>
		</g>
	</g>
</g>
</svg>
